<svg xmlns="http://www.w3.org/2000/svg" viewBox="0 0 64 64" width="512" height="512">
  <defs><linearGradient id="g" x1="0" y1="0" x2="1" y2="1">
    <stop offset="0" stop-color="#8B6CFF"/><stop offset="1" stop-color="#4F2FE0"/>
  </linearGradient></defs>
  <rect width="64" height="64" rx="15" fill="url(#g)"/>
  <path d="M16 15h21.5L48 25.5V49a4 4 0 0 1-4 4H20a4 4 0 0 1-4-4z" fill="#fff"/>
  <rect x="21" y="20.5" width="22" height="16" rx="3" fill="#4F2FE0" opacity=".15"/>
  <path d="M29.9 24.6h4.2v2.8h2.8v4.2h-2.8v2.8h-4.2v-2.8h-2.8v-4.2h2.8z" fill="#4F2FE0"/>
  <rect x="22.5" y="42.5" width="4.2" height="5.5" rx="1.2" fill="#4F2FE0" opacity=".8"/>
  <rect x="29.9" y="42.5" width="4.2" height="5.5" rx="1.2" fill="#4F2FE0" opacity=".8"/>
  <rect x="37.3" y="42.5" width="4.2" height="5.5" rx="1.2" fill="#4F2FE0" opacity=".8"/>
</svg>
