<?xml version="1.0" encoding="UTF-8" standalone="no"?>
<svg
   viewBox="0 0 39.68 59.529999"
   height="59.529999"
   width="39.68"
   xml:space="preserve"
   id="svg2"
   version="1.1"
   sodipodi:docname="ESRB 2013 Early Childhood.svg"
   inkscape:version="1.3 (0e150ed6c4, 2023-07-21)"
   xmlns:inkscape="http://www.inkscape.org/namespaces/inkscape"
   xmlns:sodipodi="http://sodipodi.sourceforge.net/DTD/sodipodi-0.dtd"
   xmlns="http://www.w3.org/2000/svg"
   xmlns:svg="http://www.w3.org/2000/svg"
   xmlns:rdf="http://www.w3.org/1999/02/22-rdf-syntax-ns#"
   xmlns:cc="http://creativecommons.org/ns#"
   xmlns:dc="http://purl.org/dc/elements/1.1/"><sodipodi:namedview
     id="namedview1"
     pagecolor="#ffffff"
     bordercolor="#000000"
     borderopacity="0.25"
     inkscape:showpageshadow="2"
     inkscape:pageopacity="0.0"
     inkscape:pagecheckerboard="0"
     inkscape:deskcolor="#d1d1d1"
     inkscape:zoom="7.769069"
     inkscape:cx="15.317151"
     inkscape:cy="30.569943"
     inkscape:window-width="1600"
     inkscape:window-height="837"
     inkscape:window-x="-8"
     inkscape:window-y="-8"
     inkscape:window-maximized="1"
     inkscape:current-layer="g10"
     showgrid="false" /><metadata
     id="metadata8"><rdf:RDF><cc:Work
         rdf:about=""><dc:format>image/svg+xml</dc:format><dc:type
           rdf:resource="http://purl.org/dc/dcmitype/StillImage" /></cc:Work></rdf:RDF></metadata><defs
     id="defs6" /><g
     transform="matrix(1.9239907,0,0,-1.9242772,0,59.529249)"
     id="g10"><g
       transform="scale(0.1)"
       id="g12"><path
         id="path14"
         style="fill:#ffffff;fill-opacity:1;fill-rule:nonzero;stroke:none"
         d="M 0,309.359 V -0.00390625 H 206.238 V 309.359 H 0" /><path
         id="path16"
         style="fill:#000000;fill-opacity:1;fill-rule:nonzero;stroke:none"
         d="M 2.99219,3.30469 H 203.242 V 306.047 H 2.99219 V 3.30469" /><path
         id="path18"
         style="fill:#ffffff;fill-opacity:1;fill-rule:nonzero;stroke:none"
         d="M 191.719,295.293 H 13.0781 V 245.094 H 191.719 v 50.199" /><path
         id="path20"
         style="fill:#ffffff;fill-opacity:1;fill-rule:nonzero;stroke:none"
         d="M 12.9844,234.141 H 191.738 V 49.6055 H 12.9844 V 234.141" /><path
         id="path22"
         style="fill:#ffffff;fill-opacity:1;fill-rule:nonzero;stroke:none"
         d="M 13.0234,14.2227 V 38.7266 H 48.9141 V 32.9922 H 27.4414 V 29.4883 H 45.6133 V 23.7734 H 27.4414 V 19.9453 H 49.7578 V 14.2227 H 13.0234" /><path
         id="path24"
         style="fill:#ffffff;fill-opacity:1;fill-rule:nonzero;stroke:none"
         d="m 80.2383,31.5859 c -0.2266,0.8204 -1.0274,1.3789 -2.0781,1.6602 -1.0313,0.3125 -2.3008,0.4609 -3.7227,0.4609 -3.1758,0 -4.5977,-0.5273 -4.5977,-1.4375 0,-3.6328 25.3125,-1.3359 25.3125,-10.2617 0,-5.664 -8.5,-8.4492 -20.5937,-8.4492 -11.6172,0 -19.1875,3.7812 -19.5,8.2148 h 13.8086 c 0.3125,-0.8789 1.1719,-1.5234 2.3945,-1.9336 1.1602,-0.4101 2.668,-0.6171 4.0977,-0.6171 3.6094,0 6.0078,0.6367 6.0078,1.789 0,3.7188 -25.3281,1.1719 -25.3281,10.5078 0,5.2149 8.0703,7.8203 19.0781,7.8203 12.2109,0 17.7851,-3.4648 18.832,-7.7539 H 80.2383"
         inkscape:label="path24" /><path
         id="path26"
         style="fill:#ffffff;fill-opacity:1;fill-rule:nonzero;stroke:none"
         d="M 116.738,22.7578 V 14.2227 H 102.32 v 24.5039 h 20.778 c 14.644,0 19.48,-2.2383 19.48,-7.0039 0,-2.8321 -2.246,-5.1836 -7.383,-6.0157 4.641,-0.9257 7.45,-1.5117 7.45,-6.4453 0,-3.1914 -0.172,-4.2969 1.535,-4.2969 v -0.7421 h -14.617 c -0.364,0.5468 -0.723,2.1211 -0.723,4.289 0,3.2227 -0.981,4.2461 -7.707,4.2461 z m 0,5.3438 h 5.664 c 4.461,0 6.868,0.6445 6.868,2.332 0,1.7305 -2.446,2.5586 -5.813,2.5586 h -6.719 v -4.8906" /><path
         id="path28"
         style="fill:#ffffff;fill-opacity:1;fill-rule:nonzero;stroke:none"
         d="m 151.445,14.2227 v 24.5039 h 21.035 c 9.903,0 17.793,-1.3282 17.793,-6.1719 0,-2.5391 -2.949,-4.3672 -5.742,-5.3242 4.746,-0.6914 7.305,-2.9883 7.305,-5.6133 0,-5.4688 -7.488,-7.3945 -18.945,-7.3945 z m 14.414,10.2265 v -4.5039 h 6.289 c 3.575,0 6.258,0.4102 6.258,2.2383 0,2.1484 -3.355,2.2656 -7.957,2.2656 z m 0,8.543 v -4.1016 h 6.004 c 2.871,0 4.961,0.7422 4.961,2.1407 0,1.9218 -2.84,1.9609 -5.867,1.9609 h -5.098" /><path
         id="path30"
         style="fill:#000000;fill-opacity:1;fill-rule:nonzero;stroke:none"
         d="m 44.6641,136.676 c 0.457,-4.153 1.125,-8.371 2.1875,-12.688 0.8672,-3.593 1.9804,-7 3.1172,-10.293 l 15.8906,4.621 c -2.7891,12.422 -9.8203,20.75 -21.1953,18.36" /><path
         id="path32"
         style="fill:#000000;fill-opacity:1;fill-rule:nonzero;stroke:none"
         d="M 185.82,147.555 143.605,135.23 c 1.629,-13.808 -2.582,-25.949 -16.718,-30.07 -22.348,-6.5428 -30.9651,10.586 -35.7347,30.07 -6.6015,26.801 -0.6796,43.2 14.7817,47.711 13.769,3.977 24.554,-1.73 29.418,-15.8 l 41.687,12.16 c -12.312,34.64 -40.391,48.953 -81.3242,37.019 -30.5312,-8.898 -51.1093,-34.851 -51.6718,-68.511 18.7578,3.652 30.9609,-8.067 36.0195,-28.508 l 1.7852,-7.246 -27.7539,-8.047 c 3.9921,-8.1447 8.9726,-14.9885 14.832,-20.4494 1.6172,3.1758 2.1484,7.1875 1.5469,12.5 L 83.957,99.9961 C 85.1953,90.3672 83.0313,82.4375 78.3555,76.3828 93.8242,66.9492 113.547,64.8984 135.984,71.4492 171.355,81.7617 190.789,110.59 185.82,147.555" /><path
         id="path34"
         style="fill:#000000;fill-opacity:1;fill-rule:nonzero;stroke:none"
         d="M 57.9336,75.5234 C 44.8633,71.6953 36.5313,84.293 34.1602,98.168 l 19.9336,5.84 c -1.5,3.039 -2.8829,6.301 -4.125,9.687 l -18.3282,-5.32 c -3.1054,12.676 0.6836,24.785 11.3047,27.879 0.5899,0.207 1.1758,0.312 1.7188,0.422 -0.4102,3.777 -0.6797,7.547 -0.6328,11.14 -0.875,-0.156 -1.8282,-0.371 -2.7579,-0.586 C 19.8633,140.941 14.582,119.086 20.1406,96.4102 25.7891,73.6172 38.7109,58.4922 60.4102,64.8398 68.043,67.0469 74.2031,71 78.3555,76.3711 75.0117,78.4336 71.8633,80.8438 68.9258,83.5586 66.9727,79.6523 63.4141,77.125 57.9336,75.5234" /><path
         id="path36"
         style="fill:#000000;fill-opacity:1;fill-rule:nonzero;stroke:none"
         d="m 18.0703,256.02 v 28.449 h 8.6875 v -4.379 h -5.3594 v -7.008 h 4.9493 v -4.371 h -4.9493 v -8.32 h 5.5391 v -4.371 h -8.8672" /><path
         id="path38"
         style="fill:#000000;fill-opacity:1;fill-rule:nonzero;stroke:none"
         d="m 34.3047,278.988 h -0.0352 l -1.5312,-12.297 h 3.1797 z m -6.4141,-22.968 4.4102,28.453 h 4.3984 l 4.3164,-28.453 h -3.4961 l -0.8984,6.3 H 32.082 l -0.914,-6.3 h -3.2774" /><path
         id="path40"
         style="fill:#000000;fill-opacity:1;fill-rule:nonzero;stroke:none"
         d="m 45.8594,272.172 h 1.4765 c 0.3204,0 0.5899,0.133 0.8008,0.391 0.2305,0.265 0.3985,0.601 0.5391,1.011 0.1328,0.41 0.2226,0.852 0.2695,1.364 0.0469,0.488 0.0938,0.957 0.0938,1.406 0,1.371 -0.1602,2.344 -0.4649,2.898 -0.2969,0.563 -0.707,0.852 -1.2383,0.852 h -1.4765 z m 0,-16.156 h -3.3281 v 28.449 h 6.1445 c 1.1484,0 2.0508,-0.633 2.7305,-1.891 0.6601,-1.261 1,-3.109 1,-5.558 0,-1.809 -0.2305,-3.348 -0.668,-4.61 -0.4492,-1.261 -1.2188,-2.039 -2.293,-2.363 v -0.078 c 0.1836,-0.047 0.4336,-0.129 0.75,-0.227 0.3242,-0.113 0.6485,-0.351 0.961,-0.722 0.3164,-0.36 0.5898,-0.911 0.832,-1.633 0.2305,-0.719 0.3555,-1.727 0.3555,-3.016 0,-0.441 0,-1.07 0.0078,-1.89 0,-0.813 0.0273,-1.653 0.0547,-2.52 0.0195,-0.859 0.0585,-1.672 0.1093,-2.402 0.0742,-0.739 0.1328,-1.25 0.1914,-1.539 h -3.2617 c -0.2187,0.871 -0.3398,1.777 -0.3398,2.718 -0.0078,0.95 -0.0078,1.883 -0.0078,2.801 0,0.84 -0.0118,1.649 -0.0196,2.403 0,0.769 -0.0859,1.429 -0.2226,1.996 -0.1289,0.562 -0.3711,1.011 -0.6914,1.351 -0.3477,0.344 -0.8282,0.52 -1.4453,0.52 h -0.8594 v -11.789" /><path
         id="path42"
         style="fill:#000000;fill-opacity:1;fill-rule:nonzero;stroke:none"
         d="m 54.8828,256.02 v 28.449 h 3.332 v -23.731 h 4.9805 v -4.718 h -8.3125" /><path
         id="path44"
         style="fill:#000000;fill-opacity:1;fill-rule:nonzero;stroke:none"
         d="m 65.9531,265.875 -4.1718,18.59 h 3.6367 l 2.3828,-12.012 2.543,12.012 h 3.3945 l -4.457,-18.59 v -9.863 h -3.3282 v 9.863" /><path
         id="path46"
         style="fill:#000000;fill-opacity:1;fill-rule:nonzero;stroke:none"
         d="m 85.5195,255.547 c -1.375,0 -2.4218,0.41 -3.1757,1.242 -0.75,0.828 -1.2891,1.926 -1.6211,3.309 -0.3477,1.382 -0.5391,2.941 -0.6055,4.711 -0.0625,1.757 -0.0938,3.57 -0.0938,5.441 0,1.891 0.0313,3.711 0.0938,5.469 0.0664,1.758 0.2578,3.32 0.6055,4.691 0.332,1.367 0.8711,2.457 1.6211,3.285 0.7539,0.832 1.8007,1.243 3.1757,1.243 1.7071,0 2.9297,-0.813 3.6446,-2.418 0.7382,-1.622 1.0703,-3.961 0.9922,-7.032 h -3.2618 c 0,1.879 -0.1093,3.219 -0.3125,4.02 -0.1953,0.781 -0.5547,1.172 -1.0625,1.172 -0.4765,0 -0.8476,-0.2 -1.1132,-0.61 -0.2891,-0.402 -0.5,-1.031 -0.6407,-1.871 -0.164,-0.832 -0.2578,-1.918 -0.289,-3.254 -0.0391,-1.328 -0.0743,-2.89 -0.0743,-4.695 0,-1.82 0.0352,-3.391 0.0743,-4.711 0.0312,-1.328 0.125,-2.418 0.289,-3.25 0.1407,-0.851 0.3516,-1.473 0.6407,-1.867 0.2656,-0.41 0.6367,-0.621 1.1132,-0.621 0.3828,0 0.6758,0.199 0.8868,0.586 0.2109,0.398 0.3476,0.894 0.4414,1.472 0.0859,0.567 0.1328,1.2 0.1562,1.875 0.0078,0.696 0.0313,1.305 0.043,1.864 h 3.2851 c 0,-1.903 -0.0976,-3.477 -0.3164,-4.766 -0.1992,-1.297 -0.5117,-2.336 -0.914,-3.113 -0.4219,-0.789 -0.918,-1.352 -1.5196,-1.68 -0.6015,-0.332 -1.2773,-0.492 -2.0625,-0.492" /><path
         id="path48"
         style="fill:#000000;fill-opacity:1;fill-rule:nonzero;stroke:none"
         d="m 99.707,273.082 v 11.387 h 3.34 V 256.02 h -3.34 v 12.691 H 95.8945 V 256.02 h -3.332 v 28.449 h 3.332 v -11.387 h 3.8125" /><path
         id="path50"
         style="fill:#000000;fill-opacity:1;fill-rule:nonzero;stroke:none"
         d="m 105.934,284.473 h 3.328 V 256.02 h -3.328 v 28.453" /><path
         id="path52"
         style="fill:#000000;fill-opacity:1;fill-rule:nonzero;stroke:none"
         d="m 112.09,256.02 v 28.449 h 3.332 v -23.731 h 5 v -4.718 h -8.332" /><path
         id="path54"
         style="fill:#000000;fill-opacity:1;fill-rule:nonzero;stroke:none"
         d="m 125.273,260.391 h 1.622 c 0.488,0 0.898,0.179 1.203,0.539 0.332,0.351 0.574,0.922 0.742,1.711 0.183,0.777 0.301,1.797 0.371,3.047 0.059,1.25 0.098,2.773 0.098,4.562 0,1.309 -0.024,2.547 -0.039,3.73 -0.032,1.192 -0.098,2.231 -0.247,3.141 -0.156,0.899 -0.378,1.629 -0.695,2.16 -0.32,0.539 -0.769,0.817 -1.336,0.817 h -1.719 z m -3.339,24.078 h 5.566 c 1.094,0 1.973,-0.317 2.645,-0.949 0.683,-0.629 1.195,-1.551 1.574,-2.747 0.383,-1.222 0.625,-2.691 0.769,-4.445 0.129,-1.746 0.188,-3.719 0.188,-5.926 v -2.586 c 0,-0.976 -0.031,-2.015 -0.098,-3.086 -0.066,-1.082 -0.215,-2.14 -0.422,-3.171 -0.191,-1.051 -0.496,-1.969 -0.886,-2.778 -0.403,-0.812 -0.911,-1.48 -1.543,-2 -0.625,-0.511 -1.414,-0.761 -2.364,-0.761 h -5.429 v 28.449" /><path
         id="path56"
         style="fill:#000000;fill-opacity:1;fill-rule:nonzero;stroke:none"
         d="m 142.617,273.082 v 11.387 h 3.328 V 256.02 h -3.328 v 12.691 h -3.828 V 256.02 h -3.34 v 28.449 h 3.34 v -11.387 h 3.828" /><path
         id="path58"
         style="fill:#000000;fill-opacity:1;fill-rule:nonzero;stroke:none"
         d="m 154.172,259.801 c 0.469,0 0.848,0.199 1.133,0.609 0.269,0.41 0.484,1.031 0.633,1.871 0.148,0.84 0.234,1.922 0.292,3.25 0.04,1.328 0.059,2.903 0.059,4.715 0,1.805 -0.019,3.379 -0.059,4.707 -0.058,1.332 -0.144,2.41 -0.292,3.242 -0.149,0.848 -0.364,1.477 -0.633,1.879 -0.285,0.41 -0.664,0.61 -1.133,0.61 -0.461,0 -0.852,-0.2 -1.137,-0.61 -0.281,-0.402 -0.484,-1.031 -0.633,-1.879 -0.144,-0.832 -0.234,-1.91 -0.285,-3.242 -0.047,-1.328 -0.066,-2.902 -0.066,-4.707 0,-1.812 0.019,-3.387 0.066,-4.715 0.051,-1.328 0.141,-2.41 0.285,-3.25 0.149,-0.84 0.352,-1.461 0.633,-1.871 0.285,-0.41 0.676,-0.609 1.137,-0.609 m 0,-4.25 c -1.367,0 -2.434,0.402 -3.176,1.242 -0.754,0.828 -1.301,1.918 -1.641,3.309 -0.339,1.367 -0.539,2.941 -0.585,4.699 -0.059,1.762 -0.098,3.582 -0.098,5.445 0,1.899 0.039,3.715 0.098,5.477 0.046,1.757 0.246,3.32 0.585,4.687 0.34,1.371 0.887,2.461 1.641,3.281 0.742,0.84 1.809,1.25 3.176,1.25 1.363,0 2.43,-0.41 3.172,-1.25 0.761,-0.82 1.289,-1.91 1.633,-3.281 0.347,-1.367 0.535,-2.93 0.601,-4.687 0.07,-1.762 0.102,-3.578 0.102,-5.477 0,-1.863 -0.032,-3.683 -0.102,-5.445 -0.066,-1.758 -0.254,-3.332 -0.601,-4.699 -0.344,-1.391 -0.872,-2.481 -1.633,-3.309 -0.742,-0.84 -1.809,-1.242 -3.172,-1.242" /><path
         id="path60"
         style="fill:#000000;fill-opacity:1;fill-rule:nonzero;stroke:none"
         d="m 167.656,259.801 c 0.457,0 0.852,0.199 1.133,0.609 0.274,0.41 0.481,1.031 0.625,1.871 0.156,0.84 0.242,1.922 0.293,3.25 0.051,1.328 0.066,2.903 0.066,4.715 0,1.805 -0.015,3.379 -0.066,4.707 -0.051,1.332 -0.137,2.41 -0.293,3.242 -0.144,0.848 -0.351,1.477 -0.625,1.879 -0.281,0.41 -0.676,0.61 -1.133,0.61 -0.468,0 -0.847,-0.2 -1.133,-0.61 -0.273,-0.402 -0.488,-1.031 -0.632,-1.879 -0.149,-0.832 -0.246,-1.91 -0.293,-3.242 -0.039,-1.328 -0.063,-2.902 -0.063,-4.707 0,-1.812 0.024,-3.387 0.063,-4.715 0.047,-1.328 0.144,-2.41 0.293,-3.25 0.144,-0.84 0.359,-1.461 0.632,-1.871 0.286,-0.41 0.665,-0.609 1.133,-0.609 m 0,-4.25 c -1.367,0 -2.429,0.402 -3.183,1.242 -0.743,0.828 -1.297,1.918 -1.629,3.309 -0.344,1.367 -0.539,2.941 -0.586,4.699 -0.063,1.762 -0.09,3.582 -0.09,5.445 0,1.899 0.027,3.715 0.09,5.477 0.047,1.757 0.242,3.32 0.586,4.687 0.332,1.371 0.886,2.461 1.629,3.281 0.754,0.84 1.816,1.25 3.183,1.25 1.36,0 2.434,-0.41 3.164,-1.25 0.762,-0.82 1.309,-1.91 1.641,-3.281 0.332,-1.367 0.535,-2.93 0.605,-4.687 0.059,-1.762 0.098,-3.578 0.098,-5.477 0,-1.863 -0.039,-3.683 -0.098,-5.445 -0.07,-1.758 -0.273,-3.332 -0.605,-4.699 -0.332,-1.391 -0.879,-2.481 -1.641,-3.309 -0.73,-0.84 -1.804,-1.242 -3.164,-1.242" /><path
         id="path62"
         style="fill:#000000;fill-opacity:1;fill-rule:nonzero;stroke:none"
         d="m 179.188,260.391 h 1.625 c 0.496,0 0.898,0.179 1.218,0.539 0.324,0.351 0.567,0.922 0.742,1.711 0.165,0.777 0.286,1.797 0.352,3.047 0.078,1.25 0.105,2.773 0.105,4.562 0,1.309 -0.007,2.547 -0.027,3.73 -0.019,1.192 -0.098,2.231 -0.265,3.141 -0.133,0.899 -0.372,1.629 -0.692,2.16 -0.312,0.539 -0.754,0.817 -1.328,0.817 h -1.73 z m -3.329,24.078 h 5.555 c 1.098,0 1.977,-0.317 2.668,-0.949 0.664,-0.629 1.191,-1.551 1.57,-2.747 0.364,-1.222 0.625,-2.691 0.754,-4.445 0.137,-1.746 0.196,-3.719 0.196,-5.926 v -2.586 c 0,-0.976 -0.039,-2.015 -0.098,-3.086 -0.078,-1.082 -0.215,-2.14 -0.41,-3.171 -0.203,-1.051 -0.508,-1.969 -0.899,-2.778 -0.41,-0.812 -0.918,-1.48 -1.543,-2 -0.632,-0.511 -1.418,-0.761 -2.363,-0.761 h -5.43 v 28.449" /></g></g></svg>
